<?xml version="1.0" encoding="utf-8"?>
<!-- Generator: Adobe Illustrator 24.1.2, SVG Export Plug-In . SVG Version: 6.00 Build 0)  -->
<svg version="1.1" id="Layer_1" xmlns="http://www.w3.org/2000/svg" xmlns:xlink="http://www.w3.org/1999/xlink" x="0px" y="0px"
	 viewBox="0 0 1435 135.6" style="enable-background:new 0 0 1435 135.6;" xml:space="preserve">
<style type="text/css">
	.st0{fill:#A098FF;}
</style>
<g>
	<path class="st0" d="M-27.4,56.1c3.1,5.6,7,6.1,10,2c6.8-9.1,12.6-20.2,19.2-29c2-2.5,3.6-3,5.1-0.3c5.4,9.8,10.5,21.7,16.6,31.3
		c3.4,5.3,7.5,6.1,10.9,0.3c6.3-10.9,11.9-23.5,18.3-34.1c1.5-2.3,3.1-2.5,4.2,0c7,13.4,12.2,27.3,19.2,40.6
		c3.4,6.6,8.5,11.4,12.7,6.1c5.6-6.8,3.9-14.9,0.2-22C79.9,33.7,69.7,17.8,58.9,2.9c-3.1-4-7.1-4-10.2,1c-5.8,9.3-10.2,21-15.6,30.5
		c-1.9,3.3-3.9,4-6.1,0.8c-6.3-8.8-11.2-19.4-17.3-28C6.1,2.3,2.3,2.6-0.7,6.9c-6.8,9.1-11.9,19.4-18,27.8c-1.7,2.5-3.1,2.3-4.2,0
		c-4.7-8.9-8.2-19.7-12.6-28.6c-3.6-7.3-8.8-8.3-13.9-1.3C-57,15.7-64.2,27.5-71.3,39.9c-3.4,5.8-4.6,13.9-0.7,18.9
		c3.9,5.3,8,3,12.1-4.3c4.8-8.6,8.8-18.2,13.9-26.3c2.2-3.3,4.1-3.3,6.1,0.5C-35.5,37.4-32,47.8-27.4,56.1z M28.5,131.6
		c2.5,3.8,7,6.6,10.5,0.5c4.8-7.8,8.5-18.2,13.6-26c1.9-2.8,3.4-3.3,5.3-0.5c4.6,7.1,8.5,16.2,13.4,23c4.4,6.1,7.6,9.1,11,4.8
		c3.7-4.5,2.2-12.4-0.7-17.9C75.3,102.8,67.5,90,60.2,78.3c-3.1-5-7.5-4.3-10.5,1c-4.9,8.6-8.8,18.7-13.4,27
		c-1.4,2.5-2.5,2.5-3.9,0.5c-7.7-11-14.6-24.7-21.6-35.8c-4.9-7.8-10-7.6-13.9-0.5c-5.4,9.6-9.7,21.2-14.8,30.5
		c-1.9,3.3-2.7,3.3-4.6,0.5C-28.6,92.4-33.2,81-39.1,72c-3.7-5.6-8-5.6-11.9,0.5c-6.6,10.4-12.9,22-18.5,34.3
		c-2,4.3-3.2,9.8-0.2,13.6c2.9,3.8,6.3,1.5,8.8-2.3c4.8-7.1,8.8-15.4,13.1-21.7c2.4-3.5,4.1-3,5.6-0.5c6.3,10.6,12.4,23,19.4,33.6
		c2.7,4,5.4,4.3,8.2-0.3c6.4-11,11.5-23.6,18.1-34.4c1.2-2,3.1-2.3,4.9,1C15.2,107.1,21.2,120.8,28.5,131.6z"/>
	<path class="st0" d="M149.7,56.1c3.1,5.6,7,6.1,10,2c6.8-9.1,12.6-20.2,19.2-29c2-2.5,3.6-3,5.1-0.3c5.4,9.8,10.5,21.7,16.6,31.3
		c3.4,5.3,7.5,6.1,10.9,0.3c6.3-10.9,11.9-23.5,18.3-34.1c1.5-2.3,3.1-2.5,4.2,0c7,13.4,12.2,27.3,19.2,40.6
		c3.4,6.6,8.5,11.4,12.7,6.1c5.6-6.8,3.9-14.9,0.2-22c-9-17.3-19.2-33.2-30.1-48.1c-3.1-4-7.1-4-10.2,1c-5.8,9.3-10.2,21-15.6,30.5
		c-1.9,3.3-3.9,4-6.1,0.8c-6.3-8.8-11.2-19.4-17.3-28c-3.6-4.8-7.3-4.5-10.4-0.3c-6.8,9.1-11.9,19.4-18,27.8c-1.7,2.5-3.1,2.3-4.2,0
		c-4.6-8.9-8.2-19.7-12.6-28.6c-3.6-7.3-8.8-8.3-13.9-1.3c-7.6,10.9-14.8,22.7-21.9,35.1c-3.4,5.8-4.6,13.9-0.7,18.9
		c3.9,5.3,8,3,12.1-4.3c4.8-8.6,8.8-18.2,13.9-26.3c2.2-3.3,4.1-3.3,6.1,0.5C141.6,37.4,145.1,47.8,149.7,56.1z M205.6,131.6
		c2.5,3.8,7,6.6,10.5,0.5c4.8-7.8,8.5-18.2,13.6-26c1.9-2.8,3.4-3.3,5.3-0.5c4.6,7.1,8.5,16.2,13.4,23c4.4,6.1,7.6,9.1,11,4.8
		c3.7-4.5,2.2-12.4-0.7-17.9c-6.3-12.6-14.1-25.5-21.4-37.1c-3.1-5-7.5-4.3-10.5,1c-4.9,8.6-8.8,18.7-13.4,27
		c-1.4,2.5-2.5,2.5-3.9,0.5c-7.6-11.1-14.6-24.7-21.6-35.9c-4.9-7.8-10-7.6-13.9-0.5c-5.4,9.6-9.7,21.2-14.8,30.5
		c-1.9,3.3-2.7,3.3-4.6,0.5C148.5,92.4,143.9,81,138,72c-3.7-5.6-8-5.6-11.9,0.5c-6.6,10.4-12.9,22-18.5,34.3
		c-2,4.3-3.2,9.8-0.2,13.6c2.9,3.8,6.3,1.5,8.8-2.3c4.8-7.1,8.8-15.4,13.1-21.7c2.4-3.5,4.1-3,5.6-0.5c6.3,10.6,12.4,23,19.4,33.6
		c2.7,4,5.4,4.3,8.2-0.3c6.5-11.1,11.5-23.7,18.2-34.6c1.2-2,3.1-2.3,4.9,1C192.3,107.1,198.3,120.8,205.6,131.6z"/>
	<path class="st0" d="M326.8,56.1c3.1,5.6,7,6.1,10,2c6.8-9.1,12.6-20.2,19.2-29c2-2.5,3.6-3,5.1-0.3c5.4,9.8,10.5,21.7,16.6,31.3
		c3.4,5.3,7.5,6.1,10.9,0.3c6.3-10.9,11.9-23.5,18.3-34.1c1.5-2.3,3.1-2.5,4.2,0c7,13.4,12.2,27.3,19.2,40.6
		c3.4,6.6,8.5,11.4,12.7,6.1c5.6-6.8,3.9-14.9,0.2-22c-9-17.3-19.2-33.2-30.1-48.1c-3.1-4-7.1-4-10.2,1c-5.8,9.3-10.2,21-15.6,30.5
		c-1.9,3.3-3.9,4-6.1,0.8c-6.3-8.8-11.2-19.4-17.3-28c-3.6-4.8-7.3-4.5-10.4-0.3c-6.8,9.1-11.9,19.4-18,27.8c-1.7,2.5-3.1,2.3-4.2,0
		c-4.6-8.8-8.2-19.7-12.6-28.5c-3.6-7.3-8.8-8.3-13.9-1.3C297.2,15.8,290,27.6,282.9,40c-3.4,5.8-4.6,13.9-0.7,18.9
		c3.9,5.3,8,3,12.1-4.3c4.8-8.6,8.8-18.2,13.9-26.3c2.2-3.3,4.1-3.3,6.1,0.5C318.7,37.4,322.3,47.8,326.8,56.1z M382.7,131.6
		c2.5,3.8,7,6.6,10.5,0.5c4.8-7.8,8.5-18.2,13.6-26c1.9-2.8,3.4-3.3,5.3-0.5c4.6,7.1,8.5,16.2,13.4,23c4.4,6.1,7.6,9.1,11,4.8
		c3.7-4.5,2.2-12.4-0.7-17.9c-6.3-12.6-14.1-25.5-21.4-37.1c-3.1-5-7.5-4.3-10.5,1c-4.9,8.6-8.8,18.7-13.4,27
		c-1.4,2.5-2.5,2.5-3.9,0.5C379,95.8,372,82.1,365.1,71c-4.9-7.8-10-7.6-13.9-0.5c-5.4,9.6-9.7,21.2-14.8,30.5
		c-1.9,3.3-2.7,3.3-4.6,0.5c-6.1-9.1-10.7-20.5-16.6-29.5c-3.7-5.6-8-5.6-11.9,0.5c-6.6,10.4-12.9,22-18.5,34.3
		c-2,4.3-3.2,9.8-0.2,13.6c2.9,3.8,6.3,1.5,8.8-2.3c4.8-7.1,8.8-15.4,13.1-21.7c2.4-3.5,4.1-3,5.6-0.5c6.3,10.6,12.4,23,19.4,33.6
		c2.7,4,5.4,4.3,8.2-0.3c6.5-11.1,11.5-23.7,18.2-34.6c1.2-2,3.1-2.3,4.9,1C369.5,107.1,375.4,120.8,382.7,131.6z"/>
	<path class="st0" d="M504,56.1c3.1,5.6,7,6.1,10,2c6.8-9.1,12.6-20.2,19.2-29c2-2.5,3.6-3,5.1-0.3c5.4,9.8,10.5,21.7,16.6,31.3
		c3.4,5.3,7.5,6.1,10.9,0.3c6.3-10.9,11.9-23.5,18.3-34.1c1.5-2.3,3.1-2.5,4.2,0c7,13.4,12.2,27.3,19.2,40.6
		c3.4,6.6,8.5,11.4,12.7,6.1c5.6-6.8,3.9-14.9,0.2-22c-9.1-17.3-19.3-33.2-30.2-48.1c-3.1-4-7.1-4-10.2,1
		c-5.8,9.3-10.2,21-15.6,30.5c-1.9,3.3-3.9,4-6.1,0.8c-6.3-8.8-11.2-19.4-17.3-28c-3.6-4.8-7.3-4.5-10.4-0.3
		c-6.8,9.1-11.9,19.4-18,27.8c-1.7,2.5-3.1,2.3-4.2,0c-4.6-8.8-8.2-19.7-12.6-28.5c-3.6-7.3-8.8-8.3-13.9-1.3
		C474.3,15.8,467.1,27.6,460,40c-3.4,5.8-4.6,13.9-0.7,18.9c3.9,5.3,8,3,12.1-4.3c4.8-8.6,8.8-18.2,13.9-26.3
		c2.2-3.3,4.1-3.3,6.1,0.5C495.8,37.4,499.4,47.8,504,56.1z M559.8,131.6c2.5,3.8,7,6.6,10.5,0.5c4.8-7.8,8.5-18.2,13.6-26
		c1.9-2.8,3.4-3.3,5.3-0.5c4.6,7.1,8.5,16.2,13.4,23c4.4,6.1,7.6,9.1,11,4.8c3.7-4.5,2.2-12.4-0.7-17.9
		c-6.3-12.6-14.1-25.5-21.4-37.1c-3.1-5-7.5-4.3-10.5,1c-4.9,8.6-8.8,18.7-13.4,27c-1.4,2.5-2.5,2.5-3.9,0.5
		c-7.6-11.1-14.6-24.7-21.6-35.9c-4.9-7.8-10-7.6-13.9-0.5c-5.4,9.6-9.7,21.2-14.8,30.5c-1.9,3.3-2.7,3.3-4.6,0.5
		c-6.1-9.1-10.7-20.5-16.6-29.5c-3.7-5.6-8-5.6-11.9,0.5c-6.6,10.4-12.9,22-18.5,34.3c-2,4.3-3.2,9.8-0.2,13.6
		c2.9,3.8,6.3,1.5,8.8-2.3c4.8-7.1,8.8-15.4,13.1-21.7c2.4-3.5,4.1-3,5.6-0.5c6.3,10.6,12.4,23,19.4,33.6c2.7,4,5.4,4.3,8.2-0.3
		c6.5-11.1,11.5-23.7,18.2-34.6c1.2-2,3.1-2.3,4.9,1C546.6,107.1,552.5,120.8,559.8,131.6z"/>
	<path class="st0" d="M681.1,56.1c3.1,5.6,7,6.1,10,2c6.8-9.1,12.6-20.2,19.2-29c2-2.5,3.6-3,5.1-0.3c5.4,9.8,10.5,21.7,16.6,31.3
		c3.4,5.3,7.5,6.1,10.9,0.3c6.3-10.9,11.9-23.5,18.3-34.1c1.5-2.3,3.1-2.5,4.2,0c7,13.4,12.2,27.3,19.2,40.6
		c3.4,6.6,8.5,11.4,12.7,6.1c5.6-6.8,3.9-14.9,0.2-22c-9.1-17.3-19.3-33.2-30.1-48.1c-3.1-4-7.1-4-10.2,1
		c-5.8,9.3-10.2,21-15.6,30.5c-1.9,3.3-3.9,4-6.1,0.8c-6.3-8.8-11.2-19.4-17.3-28c-3.6-4.8-7.3-4.5-10.4-0.3
		c-6.8,9.1-11.9,19.4-18,27.8c-1.7,2.5-3.1,2.3-4.2,0C681,25.9,677.4,15,673,6.2c-3.6-7.3-8.8-8.3-13.9-1.3
		c-7.6,10.9-14.8,22.7-21.9,35.1c-3.4,5.8-4.6,13.9-0.7,18.9c3.9,5.3,8,3,12.1-4.3c4.8-8.6,8.8-18.2,13.9-26.3
		c2.2-3.3,4.1-3.3,6.1,0.5C672.9,37.4,676.5,47.8,681.1,56.1z M737,131.6c2.5,3.8,7,6.6,10.5,0.5c4.8-7.8,8.5-18.2,13.6-26
		c1.9-2.8,3.4-3.3,5.3-0.5c4.6,7.1,8.5,16.2,13.4,23c4.4,6.1,7.6,9.1,11,4.8c3.7-4.5,2.2-12.4-0.7-17.9
		c-6.3-12.7-14.1-25.5-21.4-37.2c-3.1-5-7.5-4.3-10.5,1c-4.9,8.6-8.8,18.7-13.4,27c-1.4,2.5-2.5,2.5-3.9,0.5
		c-7.6-11.1-14.6-24.7-21.6-35.9c-4.9-7.8-10-7.6-13.9-0.5c-5.4,9.6-9.7,21.2-14.8,30.5c-1.9,3.3-2.7,3.3-4.6,0.5
		c-6.1-9.1-10.7-20.5-16.6-29.5c-3.7-5.6-8-5.6-11.9,0.5c-6.6,10.4-12.9,22-18.5,34.3c-2,4.3-3.2,9.8-0.2,13.6
		c2.9,3.8,6.3,1.5,8.8-2.3c4.8-7.1,8.8-15.4,13.1-21.7c2.4-3.5,4.1-3,5.6-0.5c6.3,10.6,12.4,23,19.4,33.6c2.7,4,5.4,4.3,8.2-0.3
		c6.5-11.1,11.5-23.7,18.2-34.6c1.2-2,3.1-2.3,4.9,1C723.7,107.1,729.7,120.8,737,131.6z"/>
	<path class="st0" d="M858.2,56.1c3.1,5.6,7,6.1,10,2c6.8-9.1,12.6-20.2,19.2-29c2-2.5,3.6-3,5.1-0.3c5.4,9.8,10.5,21.7,16.6,31.3
		c3.4,5.3,7.5,6.1,10.9,0.3c6.3-10.9,11.9-23.5,18.3-34.1c1.5-2.3,3.1-2.5,4.2,0c7,13.4,12.2,27.3,19.2,40.6
		c3.4,6.6,8.5,11.4,12.7,6.1c5.6-6.8,3.9-14.9,0.2-22c-9.1-17.3-19.3-33.2-30.1-48.1c-3.1-4-7.1-4-10.2,1
		c-5.8,9.3-10.2,21-15.6,30.5c-1.9,3.3-3.9,4-6.1,0.8c-6.3-8.8-11.2-19.4-17.3-28c-3.6-4.8-7.3-4.5-10.4-0.3
		c-6.8,9.1-11.9,19.4-18,27.8c-1.7,2.5-3.1,2.3-4.2,0c-4.7-8.9-8.2-19.7-12.6-28.6c-3.6-7.3-8.8-8.3-13.9-1.3
		c-7.6,10.9-14.8,22.7-21.9,35.1c-3.4,5.8-4.6,13.9-0.7,18.9c3.9,5.3,8,3,12.1-4.3c4.8-8.6,8.8-18.2,13.9-26.3
		c2.2-3.3,4.1-3.3,6.1,0.5C850.1,37.4,853.6,47.8,858.2,56.1z M914.1,131.6c2.5,3.8,7,6.6,10.5,0.5c4.8-7.8,8.5-18.2,13.6-26
		c1.9-2.8,3.4-3.3,5.3-0.5c4.6,7.1,8.5,16.2,13.4,23c4.4,6.1,7.7,9.1,11,4.8c3.7-4.5,2.2-12.4-0.7-17.9
		c-6.3-12.6-14.1-25.5-21.4-37.1c-3.1-5-7.5-4.3-10.5,1c-4.9,8.6-8.8,18.7-13.4,27c-1.4,2.5-2.5,2.5-3.9,0.5
		c-7.6-11.1-14.6-24.7-21.6-35.9c-4.9-7.8-10-7.6-13.9-0.5c-5.4,9.6-9.7,21.2-14.8,30.5c-1.9,3.3-2.7,3.3-4.6,0.5
		C857,92.4,852.4,81,846.5,72c-3.7-5.6-8-5.6-11.9,0.5c-6.6,10.4-12.9,22-18.5,34.3c-2,4.3-3.2,9.8-0.2,13.6
		c2.9,3.8,6.3,1.5,8.8-2.3c4.8-7.1,8.8-15.4,13.1-21.7c2.4-3.5,4.1-3,5.6-0.5c6.3,10.6,12.4,23,19.4,33.6c2.7,4,5.4,4.3,8.2-0.3
		c6.5-11.1,11.5-23.7,18.2-34.6c1.2-2,3.1-2.3,4.9,1C900.8,107.1,906.8,120.8,914.1,131.6z"/>
	<path class="st0" d="M1035.3,56.1c3.1,5.6,7,6.1,10,2c6.8-9.1,12.6-20.2,19.2-29c2-2.5,3.6-3,5.1-0.3c5.4,9.8,10.5,21.7,16.6,31.3
		c3.4,5.3,7.5,6.1,10.9,0.3c6.3-10.9,11.9-23.5,18.3-34.1c1.5-2.3,3.1-2.5,4.2,0c7,13.4,12.2,27.3,19.2,40.6
		c3.4,6.6,8.5,11.4,12.7,6.1c5.6-6.8,3.9-14.9,0.2-22c-9.2-17.4-19.4-33.3-30.2-48.2c-3.1-4-7.1-4-10.2,1
		c-5.8,9.3-10.2,21-15.6,30.5c-1.9,3.3-3.9,4-6.1,0.8c-6.3-8.8-11.2-19.4-17.3-28c-3.6-4.8-7.3-4.5-10.4-0.3
		c-6.8,9.1-11.9,19.4-18,27.8c-1.7,2.5-3.1,2.3-4.2,0c-4.6-8.8-8.2-19.7-12.6-28.5c-3.6-7.3-8.8-8.3-13.9-1.3
		c-7.6,10.9-14.8,22.7-21.9,35.1c-3.4,5.8-4.6,13.9-0.7,18.9c3.9,5.3,8,3,12.1-4.3c4.8-8.6,8.8-18.2,13.9-26.3
		c2.2-3.3,4.1-3.3,6.1,0.5C1027.2,37.4,1030.7,47.8,1035.3,56.1z M1091.2,131.6c2.6,3.8,7,6.6,10.5,0.5c4.8-7.8,8.5-18.2,13.6-26
		c1.9-2.8,3.4-3.3,5.3-0.5c4.6,7.1,8.5,16.2,13.4,23c4.4,6.1,7.7,9.1,11,4.8c3.7-4.5,2.2-12.4-0.7-17.9
		c-6.3-12.6-14.1-25.5-21.4-37.1c-3.1-5-7.5-4.3-10.5,1c-4.9,8.6-8.8,18.7-13.4,27c-1.4,2.5-2.6,2.5-3.9,0.5
		c-7.6-11.1-14.6-24.7-21.6-35.9c-4.9-7.8-10-7.6-13.9-0.5c-5.4,9.6-9.7,21.2-14.8,30.5c-1.9,3.3-2.7,3.3-4.6,0.5
		c-6.1-9.1-10.7-20.5-16.6-29.5c-3.7-5.6-8-5.6-11.9,0.5c-6.6,10.4-12.9,22-18.5,34.3c-2,4.3-3.2,9.8-0.2,13.6
		c2.9,3.8,6.3,1.5,8.8-2.3c4.8-7.1,8.8-15.4,13.1-21.7c2.4-3.5,4.1-3,5.6-0.5c6.3,10.6,12.4,23,19.4,33.6c2.7,4,5.4,4.3,8.2-0.3
		c6.5-11.1,11.6-23.7,18.2-34.6c1.2-2,3.1-2.3,4.9,1C1077.9,107.1,1083.9,120.8,1091.2,131.6z"/>
	<path class="st0" d="M1212.4,56.1c3.1,5.6,7,6.1,10,2c6.8-9.1,12.6-20.2,19.2-29c2-2.5,3.6-3,5.1-0.3c5.4,9.8,10.5,21.7,16.6,31.3
		c3.4,5.3,7.5,6.1,10.9,0.3c6.3-10.9,11.9-23.5,18.3-34.1c1.5-2.3,3.1-2.5,4.2,0c7,13.4,12.2,27.3,19.2,40.6
		c3.4,6.6,8.5,11.4,12.7,6.1c5.6-6.8,3.9-14.9,0.2-22c-9.2-17.4-19.4-33.3-30.2-48.2c-3.1-4-7.1-4-10.2,1
		c-5.8,9.3-10.2,21-15.6,30.5c-1.9,3.3-3.9,4-6.1,0.8c-6.3-8.8-11.2-19.4-17.3-28c-3.6-4.8-7.3-4.5-10.4-0.3
		c-6.8,9.1-11.9,19.4-18,27.8c-1.7,2.5-3.1,2.3-4.2,0c-4.6-8.8-8.2-19.7-12.6-28.5c-3.6-7.3-8.8-8.3-13.9-1.3
		c-7.6,10.9-14.8,22.7-21.9,35.1c-3.4,5.8-4.6,13.9-0.7,18.9c3.9,5.3,8,3,12.1-4.3c4.8-8.6,8.8-18.2,13.9-26.3
		c2.2-3.3,4.1-3.3,6.1,0.5C1204.3,37.4,1207.9,47.8,1212.4,56.1z M1268.3,131.6c2.6,3.8,7,6.6,10.5,0.5c4.8-7.8,8.5-18.2,13.6-26
		c1.9-2.8,3.4-3.3,5.3-0.5c4.6,7.1,8.5,16.2,13.4,23c4.4,6.1,7.7,9.1,11,4.8c3.7-4.5,2.2-12.4-0.7-17.9
		c-6.3-12.6-14.1-25.5-21.4-37.1c-3.1-5-7.5-4.3-10.5,1c-4.9,8.6-8.8,18.7-13.4,27c-1.4,2.5-2.6,2.5-3.9,0.5
		c-7.6-11.1-14.6-24.7-21.6-35.9c-4.9-7.8-10-7.6-13.9-0.5c-5.4,9.6-9.7,21.2-14.8,30.5c-1.9,3.3-2.7,3.3-4.6,0.5
		c-6.1-9.1-10.7-20.5-16.6-29.5c-3.7-5.6-8-5.6-11.9,0.5c-6.6,10.4-12.9,22-18.5,34.3c-2,4.3-3.2,9.8-0.2,13.6
		c2.9,3.8,6.3,1.5,8.8-2.3c4.8-7.1,8.8-15.4,13.1-21.7c2.4-3.5,4.1-3,5.6-0.5c6.3,10.6,12.4,23,19.4,33.6c2.7,4,5.4,4.3,8.2-0.3
		c6.5-11.1,11.6-23.7,18.2-34.6c1.2-2,3.1-2.3,4.9,1C1255.1,107.1,1261,120.8,1268.3,131.6z"/>
	<path class="st0" d="M1389.6,56.1c3.1,5.6,7,6.1,10,2c6.8-9.1,12.6-20.2,19.2-29c2-2.5,3.6-3,5.1-0.3c5.4,9.8,10.5,21.7,16.6,31.3
		c3.4,5.3,7.5,6.1,10.9,0.3c6.3-10.9,11.9-23.5,18.3-34.1c1.5-2.3,3.1-2.5,4.2,0c7,13.4,12.2,27.3,19.2,40.6
		c3.4,6.6,8.5,11.4,12.7,6.1c5.6-6.8,3.9-14.9,0.2-22c-9.2-17.4-19.4-33.3-30.2-48.2c-3.1-4-7.1-4-10.2,1
		c-5.8,9.3-10.2,21-15.6,30.5c-1.9,3.3-3.9,4-6.1,0.8c-6.3-8.8-11.2-19.4-17.3-28c-3.6-4.8-7.3-4.5-10.4-0.3
		c-6.8,9.1-11.9,19.4-18,27.8c-1.7,2.5-3.1,2.3-4.2,0c-4.6-8.8-8.2-19.7-12.6-28.5c-3.6-7.3-8.8-8.3-13.9-1.3
		c-7.6,10.9-14.8,22.7-21.9,35.1c-3.4,5.8-4.6,13.9-0.7,18.9c3.9,5.3,8,3,12.1-4.3c4.8-8.6,8.8-18.2,13.9-26.3
		c2.2-3.3,4.1-3.3,6.1,0.5C1381.4,37.4,1385,47.8,1389.6,56.1z M1445.4,131.6c2.6,3.8,7,6.6,10.5,0.5c4.8-7.8,8.5-18.2,13.6-26
		c1.9-2.8,3.4-3.3,5.3-0.5c4.6,7.1,8.5,16.2,13.4,23c4.4,6.1,7.7,9.1,11,4.8c3.7-4.5,2.2-12.4-0.7-17.9
		c-6.3-12.6-14.1-25.5-21.4-37.1c-3.1-5-7.5-4.3-10.5,1c-4.9,8.6-8.8,18.7-13.4,27c-1.4,2.5-2.6,2.5-3.9,0.5
		c-7.6-11.1-14.6-24.7-21.6-35.9c-4.9-7.8-10-7.6-13.9-0.5c-5.4,9.6-9.7,21.2-14.8,30.5c-1.9,3.3-2.7,3.3-4.6,0.5
		c-6.1-9.1-10.7-20.5-16.6-29.5c-3.7-5.6-8-5.6-11.9,0.5c-6.6,10.4-12.9,22-18.5,34.3c-2,4.3-3.2,9.8-0.2,13.6
		c2.9,3.8,6.3,1.5,8.8-2.3c4.8-7.1,8.8-15.4,13.1-21.7c2.4-3.5,4.1-3,5.6-0.5c6.3,10.6,12.4,23,19.4,33.6c2.7,4,5.4,4.3,8.2-0.3
		c6.5-11.1,11.6-23.7,18.2-34.6c1.2-2,3.1-2.3,4.9,1C1432.2,107.1,1438.1,120.8,1445.4,131.6z"/>
</g>
</svg>
