<?xml version="1.0" encoding="utf-8"?>
<!-- Generator: Adobe Illustrator 24.1.2, SVG Export Plug-In . SVG Version: 6.00 Build 0)  -->
<svg version="1.1" id="Layer_1" xmlns="http://www.w3.org/2000/svg" xmlns:xlink="http://www.w3.org/1999/xlink" x="0px" y="0px"
	 viewBox="0 0 71.5 55.2" style="enable-background:new 0 0 71.5 55.2;" xml:space="preserve">
<path d="M10.7,46.4c-0.4,0-0.7-0.1-1-0.3c-0.6-0.4-1-1-1-1.7V12c0-0.7,0.4-1.4,1-1.8c0.6-0.4,1.4-0.4,2,0l26.5,16.2
	c0.9,0.6,1.2,1.8,0.7,2.8c-0.2,0.3-0.4,0.5-0.7,0.7L11.7,46.1C11.4,46.3,11,46.4,10.7,46.4z M10.7,12v32.3l26.5-16.2L10.7,12z"/>
<path d="M46.5,47.1h-5.7c-1.1,0-2-0.9-2-2V11.2c0-1.1,0.9-2,2-2h5.7c1.1,0,2,0.9,2,2v33.9C48.5,46.2,47.7,47.1,46.5,47.1z
	 M40.9,11.2v33.9h5.7V11.2H40.9z"/>
<path d="M60.7,47.1H55c-1.1,0-2-0.9-2-2V11.2c0-1.1,0.9-2,2-2h5.7c1.1,0,2,0.9,2,2v33.9C62.7,46.2,61.8,47.1,60.7,47.1z M55,11.2
	v33.9h5.7V11.2H55z"/>
</svg>
